<svg xmlns="http://www.w3.org/2000/svg" viewBox="0 0 1500 1430" font-family="Segoe UI, Open Sans, Arial, sans-serif">
  <defs>
    <marker id="aData" viewBox="0 0 10 10" refX="9" refY="5" markerWidth="7" markerHeight="7" orient="auto-start-reverse">
      <path d="M0,0 L10,5 L0,10 z" fill="#1a1a1a"/>
    </marker>
    <marker id="aCtl" viewBox="0 0 10 10" refX="9" refY="5" markerWidth="7" markerHeight="7" orient="auto-start-reverse">
      <path d="M0,0 L10,5 L0,10 z" fill="#0076A8"/>
    </marker>
    <marker id="aGov" viewBox="0 0 10 10" refX="9" refY="5" markerWidth="7" markerHeight="7" orient="auto-start-reverse">
      <path d="M0,0 L10,5 L0,10 z" fill="#26890D"/>
    </marker>
    <style>
      .band { fill:#FBFBF9; stroke:#D0D0CE; }
      .bandAlt { fill:#FFFFFF; stroke:#D0D0CE; }
      .bandLbl { font-family:'Roboto Mono',Consolas,monospace; font-size:11px; font-weight:700; fill:#26890D; letter-spacing:2px; }
      .box { fill:#FFFFFF; stroke:#333333; stroke-width:1.2; }
      .parent { fill:#F5F5F2; stroke:#000000; stroke-width:1.4; }
      .sub { fill:#FFFFFF; stroke:#63666A; stroke-width:1; }
      .t { font-size:13px; font-weight:700; fill:#000; }
      .s { font-size:10px; fill:#63666A; }
      .lData { stroke:#1a1a1a; stroke-width:1.6; fill:none; }
      .lCtl  { stroke:#0076A8; stroke-width:1.6; fill:none; stroke-dasharray:7 4; }
      .lGov  { stroke:#26890D; stroke-width:1.6; fill:none; stroke-dasharray:2 3; }
      .eData { font-size:10px; fill:#1a1a1a; paint-order:stroke; stroke:#fff; stroke-width:3px; font-weight:600; }
      .eCtl  { font-size:10px; fill:#0076A8; paint-order:stroke; stroke:#fff; stroke-width:3px; font-weight:600; }
      .eGov  { font-size:10px; fill:#26890D; paint-order:stroke; stroke:#fff; stroke-width:3px; font-weight:600; }
    </style>
  </defs>

  <text x="24" y="26" font-size="19" font-weight="800" fill="#000">HR Service Delivery — Implementation Architecture<tspan fill="#86BC25">.</tspan></text>
  <text x="24" y="44" font-size="11" fill="#63666A">Microsoft Azure · Fabric + Purview anchor · MAF agent runtime · M365 Copilot surface — connection ids (C1–C29) map to the integration table (§3)</text>

  <!-- ===================== layer bands ===================== -->
  <rect class="band"    x="20" y="60"   width="1460" height="200"/>
  <rect class="bandAlt" x="20" y="300"  width="1460" height="210"/>
  <rect class="band"    x="20" y="550"  width="1460" height="160"/>
  <rect class="bandAlt" x="20" y="750"  width="1460" height="220"/>
  <rect class="band"    x="20" y="990"  width="1460" height="100"/>
  <rect class="bandAlt" x="20" y="1110" width="1460" height="180"/>
  <text class="bandLbl" x="34" y="77">1 · SOURCES &amp; INGESTION</text>
  <text class="bandLbl" x="34" y="317">2 · STORAGE — ONELAKE MEDALLION + SERVING STORES</text>
  <text class="bandLbl" x="34" y="567">3 · PROCESSING &amp; AI COMPUTE</text>
  <text class="bandLbl" x="34" y="770">4 · ORCHESTRATION &amp; AGENT RUNTIME</text>
  <text class="bandLbl" x="34" y="1007">5 · GOVERNANCE · IDENTITY · OBSERVABILITY</text>
  <text class="bandLbl" x="34" y="1127">6 · PRESENTATION &amp; CONSUMPTION</text>

  <!-- ===================== band 1 boxes ===================== -->
  <rect class="box" x="70" y="85" width="180" height="60"/>
  <text class="t" x="80" y="105">Workday HCM</text>
  <text class="s" x="80" y="121">System of Record · workers,</text>
  <text class="s" x="80" y="134">jobs, comp, org</text>

  <rect class="box" x="290" y="85" width="180" height="60"/>
  <text class="t" x="300" y="105">SAP SuccessFactors</text>
  <text class="s" x="300" y="121">SOR · legacy regions</text>
  <text class="s" x="300" y="134">(coexistence, assumption A2)</text>

  <rect class="box" x="500" y="85" width="190" height="60"/>
  <text class="t" x="510" y="105">ServiceNow HRSD</text>
  <text class="s" x="510" y="121">SOR · HR cases, requests,</text>
  <text class="s" x="510" y="134">approvals</text>

  <rect class="box" x="160" y="180" width="260" height="65"/>
  <text class="t" x="170" y="200">Fabric Data Factory</text>
  <text class="s" x="170" y="216">batch pipelines · Copy activity,</text>
  <text class="s" x="170" y="229">schedules, watermark deltas</text>

  <rect class="box" x="520" y="180" width="260" height="65"/>
  <text class="t" x="530" y="200">Fabric Eventstream</text>
  <text class="s" x="530" y="216">Real-Time hub · case lifecycle</text>
  <text class="s" x="530" y="229">events (create/update/close)</text>

  <!-- ===================== band 2 boxes ===================== -->
  <rect class="parent" x="80" y="330" width="700" height="150"/>
  <text class="t" x="92" y="350">Microsoft Fabric OneLake — medallion</text>
  <rect class="sub" x="100" y="365" width="190" height="100"/>
  <text class="t" x="110" y="384" font-size="12">Bronze lakehouse</text>
  <text class="s" x="110" y="400">raw + ingest metadata</text>
  <text class="s" x="110" y="413">Delta · append-only</text>
  <text class="s" x="110" y="426">retention 90d</text>
  <rect class="sub" x="320" y="365" width="190" height="100"/>
  <text class="t" x="330" y="384" font-size="12">Silver lakehouse</text>
  <text class="s" x="330" y="400">canonical HRML entities</text>
  <text class="s" x="330" y="413">worker · case · policy doc</text>
  <text class="s" x="330" y="426">PII tokenized · SCD2</text>
  <rect class="sub" x="540" y="365" width="220" height="100"/>
  <text class="t" x="550" y="384" font-size="12">Gold — agent-safe</text>
  <text class="s" x="550" y="400">gold_hr_worker_v2 · gold_hr_case_v1</text>
  <text class="s" x="550" y="413">KB source library (md + frontmatter)</text>
  <text class="s" x="550" y="426">Direct Lake KPI semantic model</text>

  <rect class="box" x="810" y="365" width="230" height="100"/>
  <text class="t" x="820" y="384">Azure AI Search</text>
  <text class="s" x="820" y="400">index: hr-knowledge-base</text>
  <text class="s" x="820" y="413">content_vector · HNSW (1536-dim)</text>
  <text class="s" x="820" y="426">semantic config · language filters</text>

  <rect class="box" x="1080" y="365" width="190" height="100"/>
  <text class="t" x="1090" y="384">LEDGER store</text>
  <text class="s" x="1090" y="400">Azure Database for PostgreSQL</text>
  <text class="s" x="1090" y="413">14-field audit rows · append-only</text>
  <text class="s" x="1090" y="426">7y retention (A5)</text>

  <!-- ===================== band 3 boxes ===================== -->
  <rect class="parent" x="90" y="565" width="300" height="120"/>
  <text class="t" x="102" y="585">Azure AI Language + Translator</text>
  <text class="s" x="102" y="600">Foundry AI services</text>
  <rect class="sub" x="105" y="614" width="85" height="55"/>
  <text class="s" x="112" y="632" fill="#000">PII detect</text>
  <text class="s" x="112" y="645">(tokenizer)</text>
  <rect class="sub" x="200" y="614" width="85" height="55"/>
  <text class="s" x="207" y="632" fill="#000">CLU intents</text>
  <text class="s" x="207" y="645">(classify)</text>
  <rect class="sub" x="295" y="614" width="85" height="55"/>
  <text class="s" x="302" y="632" fill="#000">Translate</text>
  <text class="s" x="302" y="645">(hrsd-09)</text>

  <rect class="box" x="430" y="565" width="220" height="120"/>
  <text class="t" x="440" y="585">Fabric Spark</text>
  <text class="s" x="440" y="601">ELT: Bronze → Silver → Gold</text>
  <text class="s" x="440" y="614">PII tokenize step (via C10)</text>
  <text class="s" x="440" y="627">ledger → Gold KPI rollup</text>
  <text class="s" x="440" y="640">notebooks + job scheduler</text>

  <rect class="box" x="690" y="565" width="220" height="120"/>
  <text class="t" x="700" y="585">KB chunk &amp; embed</text>
  <text class="s" x="700" y="601">Fabric notebook (academy kb push)</text>
  <text class="s" x="700" y="614">md → section chunks → vectors</text>
  <text class="s" x="700" y="627">runs on KB library change</text>

  <rect class="parent" x="950" y="565" width="290" height="120"/>
  <text class="t" x="962" y="585">Azure OpenAI (Foundry)</text>
  <text class="s" x="962" y="600">provisioned deployments</text>
  <rect class="sub" x="965" y="614" width="130" height="55"/>
  <text class="s" x="972" y="632" fill="#000">text-embedding-</text>
  <text class="s" x="972" y="645" fill="#000">3-small (1536)</text>
  <rect class="sub" x="1105" y="614" width="120" height="55"/>
  <text class="s" x="1112" y="632" fill="#000">gpt-4.1-mini</text>
  <text class="s" x="1112" y="645" fill="#000">chat (DECIDE)</text>

  <!-- ===================== band 4 boxes ===================== -->
  <rect class="parent" x="210" y="800" width="1040" height="140"/>
  <text class="t" x="222" y="819">Azure Container Apps — HRSD chain runtime <tspan class="s">(ACA environment · managed identity · scale 0–N)</tspan></text>
  <rect class="sub" x="230" y="825" width="260" height="80"/>
  <text class="t" x="240" y="844" font-size="12">academy-api</text>
  <text class="s" x="240" y="860">FastAPI · REST/OpenAPI</text>
  <text class="s" x="240" y="873">operationIds = plugin functions</text>
  <rect class="sub" x="520" y="825" width="280" height="80"/>
  <text class="t" x="530" y="844" font-size="12">ChainRunner · MAF agents</text>
  <text class="s" x="530" y="860">Sequential pattern · six roles</text>
  <text class="s" x="530" y="873">Assess→Classify→Quantify→Decide</text>
  <text class="s" x="530" y="886">→ ★gate(16) → Act → Learn</text>
  <rect class="sub" x="830" y="825" width="180" height="80"/>
  <text class="t" x="840" y="844" font-size="12">MCP tool server</text>
  <text class="s" x="840" y="860">capability registry:</text>
  <text class="s" x="840" y="873">gold views · search · docs</text>
  <rect class="sub" x="1040" y="825" width="200" height="80"/>
  <text class="t" x="1050" y="844" font-size="12">HITL gate controller</text>
  <text class="s" x="1050" y="860">ZERO_TOUCH · ACK_ONLY</text>
  <text class="s" x="1050" y="873">ESCALATION · HITL</text>

  <!-- ===================== band 5 boxes ===================== -->
  <rect class="box" x="90" y="1005" width="150" height="70"/>
  <text class="t" x="100" y="1024" font-size="12">Microsoft Entra ID</text>
  <text class="s" x="100" y="1040">workforce + agent ids</text>
  <text class="s" x="100" y="1053">managed identities</text>
  <rect class="box" x="300" y="1005" width="140" height="70"/>
  <text class="t" x="310" y="1024" font-size="12">Azure Key Vault</text>
  <text class="s" x="310" y="1040">keys · secrets</text>
  <rect class="box" x="520" y="1005" width="240" height="70"/>
  <text class="t" x="530" y="1024" font-size="12">Azure Monitor + App Insights</text>
  <text class="s" x="530" y="1040">OTel traces · Log Analytics</text>
  <text class="s" x="530" y="1053">alerts · dashboards</text>
  <rect class="box" x="800" y="1005" width="300" height="70"/>
  <text class="t" x="810" y="1024" font-size="12">Microsoft Purview</text>
  <text class="s" x="810" y="1040">data map scans · sensitivity labels</text>
  <text class="s" x="810" y="1053">lineage · audit</text>

  <!-- ===================== band 6 boxes ===================== -->
  <rect class="box" x="90" y="1135" width="240" height="110"/>
  <text class="t" x="100" y="1155">M365 Copilot (Teams)</text>
  <text class="s" x="100" y="1171">declarative agent (manifest v1.7)</text>
  <text class="s" x="100" y="1184">API plugin (v2.4) → OpenAPI</text>
  <text class="s" x="100" y="1197">9 conversation starters</text>
  <rect class="box" x="370" y="1135" width="230" height="110"/>
  <text class="t" x="380" y="1155">React dashboard</text>
  <text class="s" x="380" y="1171">academy-web · Vite + TS</text>
  <text class="s" x="380" y="1184">ledger trace · gate stamps · KPIs</text>
  <rect class="box" x="640" y="1135" width="230" height="110"/>
  <text class="t" x="650" y="1155">Teams Adaptive Cards</text>
  <text class="s" x="650" y="1171">HITL surface · approve / ack /</text>
  <text class="s" x="650" y="1184">escalation hand-off</text>
  <rect class="box" x="910" y="1135" width="240" height="110"/>
  <text class="t" x="920" y="1155">Power BI</text>
  <text class="s" x="920" y="1171">Direct Lake KPI model:</text>
  <text class="s" x="920" y="1184">deflection · FCR · AHT · CSAT</text>
  <text class="s" x="920" y="1197">CHRO + HR Ops workspaces</text>

  <!-- ===================== edges: band 1 internal ===================== -->
  <path class="lData" d="M190,145 V180" marker-end="url(#aData)"/>
  <text class="eData" x="120" y="166">C1 SOAP/REST · batch</text>
  <path class="lData" d="M350,145 V180" marker-end="url(#aData)"/>
  <text class="eData" x="344" y="166" text-anchor="end">C2 OData v2 · delta</text>
  <path class="lData" d="M585,145 V180" marker-end="url(#aData)"/>
  <text class="eData" x="591" y="170">C3 webhook (JSON)</text>
  <path class="lData" d="M515,145 V162 H400 V180" marker-end="url(#aData)"/>
  <text class="eData" x="404" y="158">C4 REST Table API · nightly</text>

  <!-- band 1 → band 2 -->
  <path class="lData" d="M210,245 V365" marker-end="url(#aData)"/>
  <text class="eData" x="216" y="290">C5 OneLake write · Parquet/Delta</text>
  <path class="lData" d="M540,245 V275 H250 V365" marker-end="url(#aData)"/>
  <text class="eData" x="290" y="271">C6 Eventstream sink · Delta append</text>

  <!-- band 2 internal medallion -->
  <path class="lData" d="M290,415 H320" marker-end="url(#aData)"/>
  <text class="eData" x="266" y="477">C7 Spark merge</text>
  <path class="lData" d="M510,415 H540" marker-end="url(#aData)"/>
  <text class="eData" x="492" y="477">C8 gold build</text>

  <!-- band 2 ↔ band 3 -->
  <path class="lCtl" d="M470,565 V480" marker-end="url(#aCtl)"/>
  <text class="eCtl" x="478" y="502">C9 Spark jobs · ELT + tokenize + KPI</text>
  <path class="lData" d="M430,640 H390" marker-end="url(#aData)" marker-start="url(#aData)"/>
  <text class="eData" x="338" y="558">C10 REST · PII detect</text>
  <path class="lData" d="M730,465 V565" marker-end="url(#aData)"/>
  <text class="eData" x="736" y="506">C11 Delta read · KB library</text>
  <path class="lData" d="M910,640 H917 A 8 8 0 0 1 933 640 H950" marker-end="url(#aData)" marker-start="url(#aData)"/>
  <text class="eData" x="919" y="702" text-anchor="end">C12 REST · embed</text>
  <path class="lData" d="M750,565 V530 H870 V465" marker-end="url(#aData)"/>
  <text class="eData" x="724" y="549" text-anchor="end">C13 REST mergeOrUpload (chunks + vectors)</text>

  <!-- band 2/3 ↔ band 4 -->
  <path class="lData" d="M925,465 V800" marker-end="url(#aData)" marker-start="url(#aData)"/>
  <text class="eData" x="919" y="738" text-anchor="end">C14 REST · hybrid query</text>
  <text class="eData" x="919" y="751" text-anchor="end">(BM25 + kNN) · MCP search tool</text>
  <path class="lData" d="M1050,685 V800" marker-end="url(#aData)" marker-start="url(#aData)"/>
  <text class="eData" x="1056" y="716">C15 REST · chat + query embed</text>
  <path class="lData" d="M300,685 V800" marker-end="url(#aData)" marker-start="url(#aData)"/>
  <text class="eData" x="306" y="745">C16 REST · CLU / PII / translate</text>
  <path class="lData" d="M1245,800 V465" marker-end="url(#aData)"/>
  <text class="eData" x="1251" y="757" transform="rotate(-90 1251,757)">C17 PostgreSQL · append 14-field ledger rows</text>
  <path class="lData" d="M80,415 H55 V870 H210" marker-end="url(#aData)" marker-start="url(#aData)"/>
  <text class="eData" x="62" y="770" transform="rotate(-90 62,770)">C18 TDS · SQL endpoint → gold views (MCP tools)</text>
  <path class="lData" d="M210,910 H35 V72 H620 V85" marker-end="url(#aData)"/>
  <text class="eData" x="42" y="500" transform="rotate(-90 42,500)">C19 REST Table API · ACT case write-back</text>

  <!-- band 4 ↔ band 6 (through band-5 corridors) -->
  <path class="lData" d="M270,1135 V940" marker-end="url(#aData)" marker-start="url(#aData)"/>
  <text class="eData" x="284" y="1128" transform="rotate(-90 284,1128)">C20 REST · OpenAPI plugin</text>
  <path class="lCtl" d="M780,940 V1135" marker-end="url(#aCtl)" marker-start="url(#aCtl)"/>
  <text class="eCtl" x="796" y="1128" transform="rotate(-90 796,1128)">C21 Graph/Bot · approve/ack</text>
  <path class="lData" d="M480,1135 V940" marker-end="url(#aData)" marker-start="url(#aData)"/>
  <text class="eData" x="496" y="1128" transform="rotate(-90 496,1128)">C22 REST /api</text>
  <path class="lData" d="M650,365 V305 H1410 V1105 H1130 V1135" marker-end="url(#aData)"/>
  <text class="eData" x="1030" y="301">C23 Direct Lake · KPI semantic model</text>

  <!-- governance (dotted) -->
  <path class="lGov" d="M150,1075 V1135" marker-end="url(#aGov)"/>
  <text class="eGov" x="156" y="1105">C24 OIDC</text>
  <path class="lGov" d="M225,1005 V940" marker-end="url(#aGov)"/>
  <text class="eGov" x="203" y="980" transform="rotate(-90 203,980)">C25 OAuth2 OBO + MI</text>
  <path class="lGov" d="M370,1005 V940" marker-end="url(#aGov)"/>
  <text class="eGov" x="376" y="980">C26 secret refs</text>
  <path class="lGov" d="M640,940 V1005" marker-end="url(#aGov)"/>
  <text class="eGov" x="646" y="980">C27 OTel traces</text>
  <path class="lGov" d="M950,940 V1005" marker-end="url(#aGov)"/>
  <text class="eGov" x="956" y="980">C28 Atlas REST · lineage/audit</text>
  <path class="lGov" d="M1100,1040 H1360 V322 H700 V365" marker-end="url(#aGov)"/>
  <text class="eGov" x="1354" y="700" transform="rotate(-90 1354,700)">C29 Purview scan · classification + labels</text>

  <!-- runtime internal -->
  <path class="lData" d="M490,865 H520" marker-end="url(#aData)"/>
  <text class="eData" x="484" y="920">invoke</text>
  <path class="lCtl" d="M800,855 H830" marker-end="url(#aCtl)"/>
  <text class="eCtl" x="805" y="848">MCP</text>
  <path class="lCtl" d="M700,905 V925 H1130 V905" marker-end="url(#aCtl)"/>
  <text class="eCtl" x="860" y="921">gate check @ step 16</text>

  <!-- ===================== legend ===================== -->
  <rect x="20" y="1310" width="1460" height="100" fill="#FFFFFF" stroke="#000" stroke-width="1"/>
  <text class="t" x="34" y="1332">Legend</text>
  <path class="lData" d="M120,1352 H210" marker-end="url(#aData)"/>
  <text class="s" x="220" y="1356" fill="#000">data flow (protocol labeled)</text>
  <path class="lCtl" d="M430,1352 H520" marker-end="url(#aCtl)"/>
  <text class="s" x="530" y="1356" fill="#000">control / orchestration</text>
  <path class="lGov" d="M720,1352 H810" marker-end="url(#aGov)"/>
  <text class="s" x="820" y="1356" fill="#000">identity / governance / observability</text>
  <path class="lData" d="M1120,1352 H1180" marker-end="url(#aData)" marker-start="url(#aData)"/>
  <text class="s" x="1190" y="1356" fill="#000">double arrow = request/response</text>
  <text class="s" x="120" y="1382" fill="#000">Shaded outer boxes are parent services; inner boxes are their sub-components. An arrow ending on a parent's edge targets the sub-component named in its label.</text>
  <text class="s" x="120" y="1396" fill="#000">C1–C29 cross-reference the integration inventory (§3 of the architecture document). Lines are routed orthogonally without crossings; the single hop arc (C12 over C14) marks lines that pass without connecting.</text>
</svg>
